<svg xmlns="http://www.w3.org/2000/svg" viewBox="0 0 163.36 121.26"><defs><style>.cls-1{fill:#f39200;}.cls-2{fill:none;stroke:#f39200;stroke-miterlimit:10;stroke-width:8px;}</style></defs><title>Asset 7</title><g id="Layer_2" data-name="Layer 2"><g id="Layer_1-2" data-name="Layer 1"><path class="cls-1" d="M42,95a77.37,77.37,0,0,0,39.4-18.28l1.06.42A77.37,77.37,0,0,0,121.7,95,46.83,46.83,0,0,1,42,95Z"/><line class="cls-2" x1="82.45" y1="77.14" x2="81.39" y2="76.72"/><path class="cls-2" d="M42,95a46.83,46.83,0,0,0,79.71,0"/><path class="cls-2" d="M81.68,76.47l.77.67A77.37,77.37,0,0,0,121.7,95a76.75,76.75,0,0,0,11.32.83,77.56,77.56,0,0,0,25.7-4.37A77.5,77.5,0,0,0,107.38,8.38"/><path class="cls-2" d="M56,8.38A77.69,77.69,0,0,0,4,81.69a79.49,79.49,0,0,0,.63,9.81,77.62,77.62,0,0,0,25.71,4.37A78.5,78.5,0,0,0,42,95a77.37,77.37,0,0,0,39.4-18.28l.29-.25"/><path class="cls-2" d="M81.68,76.47a77.38,77.38,0,0,0,25.7-68.09A77.62,77.62,0,0,0,56,8.38a79.23,79.23,0,0,0-.64,9.81A77.48,77.48,0,0,0,81.68,76.47Z"/></g></g></svg>