<?xml version="1.0" encoding="UTF-8"?>
<svg width="239px" height="222px" viewBox="0 0 239 222" version="1.1" xmlns="http://www.w3.org/2000/svg" xmlns:xlink="http://www.w3.org/1999/xlink">
    <!-- Generator: Sketch 42 (36781) - http://www.bohemiancoding.com/sketch -->
    <title>logo</title>
    <desc>Created with Sketch.</desc>
    <defs></defs>
    <g id="Symbols" stroke="none" stroke-width="1" fill="none" fill-rule="evenodd">
        <g id="logo">
            <rect id="Rectangle-2-Copy-3" fill="#EE7F6B" x="9" y="2.84217094e-14" width="222" height="222" rx="16"></rect>
            <g id="icon-copy-3" transform="translate(0.000000, 24.000000)">
                <g id="icon" transform="translate(47.544385, 35.255474)">
                    <g id="Asset-5">
                        <g id="Layer_2">
                            <g id="Layer_1-2">
                                <path d="M108.772036,83.2039954 C100.8892,95.8392979 86.9526852,103.532026 71.9448005,103.532026 C56.9369158,103.532026 43.0004007,95.8392979 35.1175648,83.2039954 C48.6187464,81.1866953 61.2538118,75.3868093 71.5289346,66.4900499 L72.5085298,66.8740684 C82.7883565,75.6068431 95.3645133,81.2700495 108.772036,83.2039954 L108.772036,83.2039954 Z" id="Shape" fill="#FFFFFF"></path>
                                <path d="M72.4992884,66.8740684 L71.5196931,66.4900499" id="Shape" stroke="#FFFFFF" stroke-width="7.3728"></path>
                                <path d="M35.1175648,83.2039954 C42.9994483,95.8435199 56.9384052,103.539434 71.9494212,103.539434 C86.9604372,103.539434 100.899394,95.8435199 108.781278,83.2039954" id="Shape" stroke="#FFFFFF" stroke-width="7.3728"></path>
                                <path d="M71.7876956,66.2614675 L72.4992884,66.8740684 C82.7816821,75.6084085 95.3612586,81.2717116 108.772036,83.2039954 C112.235437,83.7120745 115.732109,83.9657325 119.233374,83.962889 C127.321379,83.9663265 135.351638,82.6153747 142.983937,79.9672685 C147.31218,46.7323284 127.518085,15.0411584 95.5382592,4.00476373" id="Shape" stroke="#FFFFFF" stroke-width="7.3728"></path>
                                <path d="M48.055615,4.00476373 C19.2738374,13.9823103 0.00375856143,40.8608308 1.14596332e-14,71.0342682 C0.00684920496,74.0331466 0.201291666,77.028731 0.582212258,80.0038417 C8.21770647,82.6519398 16.2509993,84.0028763 24.3420173,83.9994622 C27.9488591,83.999701 31.5506969,83.733808 35.1175648,83.2039954 C48.6187464,81.1866953 61.2538118,75.3868093 71.5289346,66.4900499 L71.7969371,66.2614675" id="Shape" stroke="#FFFFFF" stroke-width="7.3728"></path>
                                <path d="M71.7876956,66.2614675 C89.6899467,50.7176083 98.5948829,27.3753421 95.5382592,4.00476373 C80.1696581,-1.32834074 63.424216,-1.32834074 48.055615,4.00476373 C47.6709908,6.97962608 47.4734594,9.97524896 47.4641613,12.9743373 C47.4396044,33.3730329 56.3037221,52.7922253 71.7876956,66.2614675 L71.7876956,66.2614675 Z" id="Shape" stroke="#FFFFFF" stroke-width="7.3728"></path>
                            </g>
                        </g>
                    </g>
                </g>
            </g>
        </g>
    </g>
</svg>